<svg xmlns="http://www.w3.org/2000/svg" viewBox="0 0 527.28 380.39"><defs><style>.cls-1{fill:#ebebff}.cls-2{fill:#fff}.cls-3{fill:#cec7ff}.cls-4{fill:#8f87f9}.cls-6{fill:#ffb419}.cls-13{fill:#502aff}</style></defs><g id="Layer_2" data-name="Layer 2"><g id="Layer_10" data-name="Layer 10"><path class="cls-1" d="M399.06 6.84a117.6 117.6 0 01117.6 117.6v30.3a158.47 158.47 0 01-158.47 158.47.47.47 0 01-.47-.47V48.18a41.34 41.34 0 0141.34-41.34z"/><path class="cls-2" d="M432.18 160l-52.69 1a10.8 10.8 0 01-10.81-10.8v-39.58a11.13 11.13 0 0111.13-11.13h50.37z"/><rect class="cls-2" x="442.84" y="99.49" width="61.5" height="61.5" rx="30.75" ry="30.75"/><path class="cls-2" d="M522.89 52.57a40.88 40.88 0 01-39.17 29.18 40.88 40.88 0 01-40.88-40.88A40.87 40.87 0 01483.72 0 40.63 40.63 0 01495 1.59"/><path class="cls-2" d="M495 1.59a40.89 40.89 0 0129.55 39.28 40.67 40.67 0 01-1.7 11.7"/><path class="cls-3" d="M524.34 36.29l.26 2.71a19.29 19.29 0 01.17 2.74v2.76c0 .92-.19 1.82-.28 2.74a38.89 38.89 0 01-1 5.44c-.2.91-.56 1.77-.83 2.65a18.58 18.58 0 01-1 2.61l-1.15 2.54c-.42.83-.92 1.62-1.37 2.43l-.7 1.21c-.26.39-.54.77-.81 1.15L516 67.56a42.33 42.33 0 01-3.81 4.11c-.7.63-1.34 1.32-2.08 1.89l-2.23 1.72a39.56 39.56 0 01-9.92 5.28 43.93 43.93 0 01-5.42 1.63c-.92.2-1.86.32-2.78.48a19.24 19.24 0 01-2.81.34l-2.83.16c-.94 0-1.89-.07-2.83-.1a40.32 40.32 0 01-16.39-4.27l-1.28-.62c-.41-.23-.81-.49-1.22-.73L460 76l-2.27-1.7c-.37-.29-.77-.55-1.12-.87l-1-1a40.73 40.73 0 01-7.33-8.6l-1.45-2.43c-.48-.81-.83-1.7-1.24-2.54a45.59 45.59 0 01-2.05-5.27c-.26-.9-.46-1.82-.7-2.74l-.34-1.37c-.09-.46-.14-.93-.21-1.39l-.38-2.8c-.05-.93-.07-1.87-.11-2.81a40.54 40.54 0 0121-36.73 41.82 41.82 0 00-14.33 16 40.12 40.12 0 00-4.37 20.67c.07.88.11 1.77.19 2.65l.44 2.62c.08.43.14.87.23 1.31l.34 1.28c.24.85.44 1.71.71 2.55a40.83 40.83 0 002 4.89c.41.78.74 1.6 1.21 2.35l1.39 2.25a39.09 39.09 0 006.9 7.95l1 .89c.32.3.7.53 1 .8l2.12 1.58 2.26 1.36c.38.23.75.47 1.13.67l1.19.57a38.9 38.9 0 009.94 3.43 38.45 38.45 0 005.24.64c.88 0 1.76.13 2.64.11l2.64-.11a17.75 17.75 0 002.62-.26c.87-.14 1.76-.23 2.62-.4a42.7 42.7 0 005.09-1.46 39.73 39.73 0 009.47-4.72l2.16-1.56c.72-.52 1.35-1.15 2-1.72a48 48 0 003.77-3.78l1.65-2.1c.27-.35.56-.69.82-1.06l.72-1.13c.47-.75 1-1.49 1.43-2.27l1.22-2.39a42.21 42.21 0 004.1-21.07z"/><path class="cls-2" d="M388 80.58a190.62 190.62 0 0023.26-.46 20.41 20.41 0 0019-20.35V44.61A20.39 20.39 0 00408 24.29q-8.82.8-21.09 2.13a20.42 20.42 0 00-18.23 20.28v13.5A20.38 20.38 0 00388 80.58z"/><path class="cls-1" d="M383.69 249.09l-93.23-38.89a6.55 6.55 0 00-3.06-.48l-53.31 4.63-18.84 1.65C173.65 219.9 72 231.17 0 253.28l22.92 13.86a247.19 247.19 0 00160.58 33.58l180.52-24a312.6 312.6 0 0019.67-27.63z"/><path class="cls-4" d="M182.4 228a14.77 14.77 0 01-4.4-10.53v-14.56l-27.38 1.45v16.49a14.78 14.78 0 004.4 10.52l7 9.43L189 237z"/><path d="M232.9 203.4l-144.24 8.47a12.17 12.17 0 01-12.83-11.53L69.22 81.23a12.19 12.19 0 0112.29-12.91L227 70.16a12.19 12.19 0 0112 11.62l5.36 108.81a12.2 12.2 0 01-11.46 12.81z" fill="#cec6ff"/><path class="cls-2" d="M230.92 82.77l4.23 97.77-150.65 3.83-6.43-100.81a7 7 0 017-7.44l140.39 1.33a5.55 5.55 0 015.46 5.32zm-2.3 145.36l-118.13 16.02 34.89 19.19 119.86-20.4-36.62-14.81z"/><path class="cls-6" d="M333.64 177.71c-4.56-4.57-9.89-12.1-12.51-23.71a16.46 16.46 0 013-13.68c10.38-13.43 26.29-36.67 2-54.56-6.36-4.53-16.62-7.64-28.41-7.52a49.3 49.3 0 00-32.28 12.59l-.38.35A13.12 13.12 0 00261 103.3l1.91 10.28a19.32 19.32 0 00.91 3.27 16.59 16.59 0 01-.52 12.06c-4.3 7.39-4.3 8.19-4.3 8.19l6.87 5.92 1.94 17.92a4.22 4.22 0 005.15 3.91l13.71-3.13s7.91 14 7.51 24.95c-.27 7.64 23.09 3.14 37.12-.25a5.17 5.17 0 002.34-8.71z"/><path d="M268.35 165.55s32-2.38 15.42-26.26A35.22 35.22 0 01280 130a15.58 15.58 0 018.83-17.85l8.73 34.1c2.15 8.38 11 13.29 19.07 10.22 2.68-1 4.78-2.81 5.41-5.82l2.07-5.67 8.64 1.16a6.45 6.45 0 006.7-3.71 6.53 6.53 0 00-1.87-7.85 7.48 7.48 0 01-2-9.34 4.19 4.19 0 012-1.9l6.82-3a6.2 6.2 0 003.7-5.68 6.19 6.19 0 00-4.91-6.07 3.91 3.91 0 01-2.79-2.24c-.83-1.86-1.67-5.18-.88-10.37a18.3 18.3 0 00-6.59-16.86l-.29-.23A24.39 24.39 0 00311.56 74c-4.51 1.09-9.88 1.51-14.15-.71-8.5-4.26-15.09-3.25-17.14 1.73a39.57 39.57 0 01-5.11 9l-1.16-.38a9.17 9.17 0 00-11 4s-6.49 13.83-.57 23.33c7.09-13.18 14.51-12.29 13.62 1.44-.81 5.89-2.43 18.52-3.38 26a6.89 6.89 0 01-6.7 6z" fill="#2411aa"/><path d="M331.31 175.47c-23.81 1.43-40.11 3.8-66 13.37-22.49 8.29-34.8 18.72-52.2 45-7.31 11-19.44 21.39-19.44 21.39l-11.67-9.7a15.06 15.06 0 00-8.46-5 9.94 9.94 0 00-9.9 3.21 11.9 11.9 0 00-2.61 9.78c1.25 7.27 5.69 22.3 21.57 31.1 9.61 5.34 23.82 8.45 36.86-2.84a291.35 291.35 0 0134-25.53s7.59 36.75-14.07 55l23 9.23 4.54 1.46c37.19 11.8 101.61-4.48 115.45-91 1.51-12.06 5.46-56.29-51.07-55.47z" fill="#709eff"/><path class="cls-2" d="M398.18 222.64s-43.79 26.68-108.5 23a25.49 25.49 0 00-26.44 20.93c-3 16.6-4.67 41.24-3.26 77.1 2.34 58.94 137.35 16.56 138.2-121.03z"/><path fill="#2d61f7" opacity=".37" d="M253.41 256.29l-2.07-13.5-38.28 43.4 40.35-29.9z"/><path d="M193.64 255.23s-28.5-16-32.65-1.67c-.64-7.4 4.22-15.14 13.34-12.7a15.33 15.33 0 015.88 3.15c5.2 4.38 13.43 11.22 13.43 11.22z" fill="#9fc2ff"/><path class="cls-3" d="M278.84 368.16c8.62 1.88 17.54.94 25.88-1.45a95.94 95.94 0 0023.76-10.56 126.4 126.4 0 0020.65-15.83 138.29 138.29 0 0017.22-19.52 150.72 150.72 0 0013.54-22.26 172.57 172.57 0 009.67-24.25 203.31 203.31 0 008.62-51.65v9.89l-.18 3.29c-.12 2.2-.21 4.4-.36 6.6L397 249a165.46 165.46 0 01-5.18 26 163.1 163.1 0 01-9.37 24.83 150.22 150.22 0 01-13.67 22.78 138.93 138.93 0 01-17.71 19.83 121.35 121.35 0 01-21.4 15.76 91.84 91.84 0 01-24.58 10 62.85 62.85 0 01-13.16 1.7 41.79 41.79 0 01-13.09-1.74z"/><path class="cls-6" d="M176.34 229.42a6.2 6.2 0 00-6.6-.22l-.88.51a48.46 48.46 0 00-6.81 5.35 7.7 7.7 0 00-1.36 9.8c.39.62.82 1.31 1.28 2.07 4.06-8.42 12.72-5.84 12.72-5.84l1.58.31L178 235l4.7-1.31z"/><path class="cls-2" d="M185.74 264.49c5.07-5.86 10.15-11.68 15.13-17.58 2.47-3 5-5.91 7.33-8.93s4.72-6 7-9.2a203.76 203.76 0 0114.66-18.1 79.73 79.73 0 018.55-8 43 43 0 0110-6c-6.71 3.92-12.12 9.47-17.13 15.26q-3.72 4.4-7.21 9a571.96 571.96 0 00-6.92 9.27 191.63 191.63 0 01-14.85 17.95c-5.3 5.67-10.79 11.16-16.56 16.33z"/><path d="M248.36 230.58a84.16 84.16 0 015.18 16.42 102.17 102.17 0 012.16 17.18 82.22 82.22 0 01-1.12 17.31l-.86 4.26c-.34 1.4-.8 2.78-1.19 4.17l-.64 2.07c-.24.68-.53 1.34-.81 2-.55 1.33-1.12 2.65-1.7 4 .35-1.4.7-2.79 1.07-4.16.18-.7.39-1.37.55-2.07l.4-2.1c.25-1.4.59-2.78.79-4.18l.55-4.22c.23-1.4.24-2.83.38-4.23s.25-2.82.23-4.24l.1-4.25-.12-4.24a150.94 150.94 0 00-1.61-16.94c-.86-5.61-1.96-11.21-3.36-16.78z" fill="#3f74e8"/><path class="cls-4" d="M70.29 100.48c.69 7.54 1.22 15.1 1.84 22.65l1.59 22.65c.55 7.56 1 15.11 1.46 22.67l.67 11.34.32 5.67.18 5.7.15 5.7.07 2.81a11.52 11.52 0 00.33 2.57 9.06 9.06 0 002.37 4.4 11.06 11.06 0 004.35 2.62 20.51 20.51 0 005.28.94h2.74l2.84-.12c3.78-.18 7.56-.33 11.34-.47l22.69-.84c7.57-.2 15.14-.48 22.71-.6-7.54.66-15.1 1.17-22.65 1.76l-22.67 1.51q-5.67.39-11.34.72l-2.83.17H88.8a23 23 0 01-5.89-1 13.14 13.14 0 01-5.28-3.15 11.68 11.68 0 01-1.89-2.53 13.65 13.65 0 01-1.1-2.93 14.34 14.34 0 01-.41-3l-.09-2.86-.14-5.62-.14-5.66-.3-5.67-.59-11.34c-.35-7.56-.76-15.12-1-22.68l-.97-22.7c-.25-7.57-.56-15.14-.71-22.71zm40.2 143.67c3.14 1.17 6.18 2.54 9.17 4s5.93 3 8.85 4.57 5.78 3.26 8.59 5 5.61 3.58 8.28 5.61c-3.15-1.16-6.18-2.53-9.17-4s-5.93-3-8.85-4.57-5.78-3.26-8.59-5-5.61-3.58-8.28-5.61z"/><path d="M150.9 208.81q.28 3.9.35 7.8a29 29 0 00.88 7.57 26.88 26.88 0 002.94 7 31.73 31.73 0 002.18 3.16c.77 1 1.57 2.08 2.31 3.16a45.09 45.09 0 01-5.28-5.82 22.87 22.87 0 01-3.3-7.2 25 25 0 01-.66-3.93 29.07 29.07 0 010-4c.12-2.55.31-5.15.58-7.74z" fill="#5050e2"/><path class="cls-6" d="M210 96.12l3 70.28-108.28 2.75-4.62-72.46a5 5 0 015-5.35l100.91 1a4 4 0 013.99 3.78z"/><path class="cls-2" d="M167.27 138.55c-5.4-1.92-14.89-2.55-19.21 2a10.58 10.58 0 00-1.13 13.15c3.45 4.87 11.23 4.49 15.45 4.49 3.56 0 11.56 0 13.23-7.11 1.89-7.67-5.11-11.22-8.34-12.53z"/><path class="cls-13" d="M154.66 148.47a35.85 35.85 0 006.38-.23c1.66-.15 3.64.15 5.21-.31a.8.8 0 00-.43-1.54c-3.68.62-7.66.11-11.3 1-.62.15-.43 1 .14 1z"/><path class="cls-13" d="M159.4 142.34a36.19 36.19 0 010 4.54c0 1.67.17 3.31 0 5-.1 1 1.6 1.06 1.62 0 0-1.89-.27-3.77-.24-5.67 0-1.31.2-2.91-.46-4.1-.23-.43-1-.27-1 .26z"/><path class="cls-2" d="M200.71 110.68l1.03 18.31-86.67 1.23-1.29-19.54h86.93z"/><path class="cls-13" d="M122.26 126l-.94-.15c.62-4.06 1.26-8.27 3.29-11.77a.48.48 0 01.53-.23.49.49 0 01.36.46 20.63 20.63 0 00.72 4.31c.22.94.44 1.91.59 2.84.3-.46.64-.92 1-1.39a11 11 0 002.18-3.89.49.49 0 01.52-.37.48.48 0 01.42.47c0 1 1 3.11 1.67 4.47.31-.42.71-.86 1.14-1.35a10.84 10.84 0 002.35-3.33.46.46 0 01.52-.33.48.48 0 01.41.46 9.5 9.5 0 00.78 3.09c.17.45.34.88.46 1.29a15.52 15.52 0 001.92-3.27.51.51 0 01.28-.24.45.45 0 01.36 0 2.29 2.29 0 011.26 2 24 24 0 012.91-3.36.47.47 0 01.51-.12.49.49 0 01.3.44 8.73 8.73 0 001.06 3.94 31.2 31.2 0 003.48-4.26.47.47 0 01.53-.2.47.47 0 01.34.45 6.5 6.5 0 00.77 2.66 9.56 9.56 0 01.52 1.28c4.79-3.06 10.82-2.43 16.65-1.82a65.76 65.76 0 007.31.48.48.48 0 110 1 62.75 62.75 0 01-7.43-.49c-5.91-.61-12-1.25-16.62 2.08a.48.48 0 01-.49 0 .49.49 0 01-.27-.42 4.52 4.52 0 00-.55-1.7 10 10 0 01-.69-1.78 37.8 37.8 0 01-3.35 3.87.45.45 0 01-.41.14.45.45 0 01-.35-.25 11.33 11.33 0 01-1.39-3.87 14.14 14.14 0 00-2.5 3.24.49.49 0 01-.35.26.45.45 0 01-.41-.13 2.14 2.14 0 01-.53-1.33 1.91 1.91 0 00-.34-1 13.72 13.72 0 01-2.5 3.74.46.46 0 01-.51.11.48.48 0 01-.3-.44 7.07 7.07 0 00-.58-2 18.42 18.42 0 01-.62-1.86 20.05 20.05 0 01-1.84 2.27 10.18 10.18 0 00-1.47 1.87.48.48 0 01-.42.27.48.48 0 01-.43-.26 31.74 31.74 0 01-1.79-4 18.29 18.29 0 01-1.77 2.68 10 10 0 00-1.63 2.65.49.49 0 01-.52.33.48.48 0 01-.41-.47 21.31 21.31 0 00-.72-4.31c-.22-1-.45-1.92-.59-2.85a38.4 38.4 0 00-2.42 10.09zm-.47-.07z"/><path class="cls-1" d="M518.16 371.48c-2.63 9.14-21.74 11.66-42.68 5.63s-35.8-18.32-33.17-27.45S464.05 338 485 344s35.79 18.35 33.16 27.48z"/><path class="cls-2" d="M462.69 173.26s-14.5 64 8.46 107.51l23 43.49s5.99-108.72-31.46-151z"/><path class="cls-2" d="M463.67 340.4c1.39 7.85 3.18 15.77 7.07 22.73s10.16 12.94 17.91 14.87a41 41 0 0010.79.74c4-.1 8.1-.36 11.52-2.37 4.46-2.62 6.79-7.69 8.6-12.53a145.56 145.56 0 006.94-25.28c.89-5 1.47-10.36-.85-14.84-3.14-6.08-10.51-8.52-17.26-9.62-11.22-1.83-26.67-2.77-37.42 1.8-9.39 3.94-8.82 15.93-7.3 24.5z"/><path class="cls-4" d="M489.12 324.46c8.9.52 18.55-.84 24.16-3.86 1.12-.6 2.11-1.38 1.58-2.12s-3-1.23-5.06-1.44c-10.7-1.11-22.56-1.61-33 .17-15.38 2.6 4.2 6.79 12.32 7.25z"/><path class="cls-1" d="M493.18 321.24l2.95.45c7.07-17.45 28.91-74.15 26.21-102.57 0 0-33.4 73.7-30.58 91.73.65 4.71 1.1 8.04 1.42 10.39zm-29.02 2.17a31.21 31.21 0 00.11 12.59c.36 2.08.83 4.12 1.35 6.21s1 4.14 1.6 6.17a62.9 62.9 0 004.42 11.62 34.35 34.35 0 007.1 9.71 24 24 0 0010 5.94c3.7 1.14 7.93 1 12.18 1.12s8.22-.4 11.31-2.9a17.85 17.85 0 004.08-4.54c.58-.88 1.11-1.8 1.62-2.74s1-1.89 1.5-2.85l.25.09a46.48 46.48 0 01-2.61 5.92 18.79 18.79 0 01-3.93 5.15 13.56 13.56 0 01-5.7 3 29.89 29.89 0 01-6.43.88c-4.29.14-8.67.33-12.9-.8a26.26 26.26 0 01-11.19-6.42 36.44 36.44 0 01-7.51-10.53 60.07 60.07 0 01-4.21-12.22c-.51-2.1-.94-4.21-1.33-6.33s-.77-4.24-1-6.39c-.42-4.27-.43-8.72 1-12.83z"/><path class="cls-3" d="M484.43 179.71s-7.24 105.79 9.67 144.55c0 0 10.9-94.26-9.67-144.55z"/><path class="cls-1" d="M408.89 116.49l-10 36.48v-36.19h-10.06V170l15.72.29 9.56-34.92V170h10.07v-53.22z"/><path class="cls-6" d="M486.63 35.81L504.5 13.9s-2-3.37-13.51-5.42c-4.16-.74-5.43-.66-5.23-.32 5.64 9.65.87 27.65.87 27.65z"/><path class="cls-4" d="M515.65 13.23c.33-.4-7.66 6.41-16.28 15.15-5.19 5.25-9.66 10-12.33 13.05a4 4 0 00-3.93-.45c-.8-2.15-1.93-5-3.24-8.13-2.71-6.5-5.14-11.68-5.41-11.56s1.7 5.48 4.41 12c1.32 3.16 2.57 6 3.54 8.08a4.07 4.07 0 106.27 4.16 4.11 4.11 0 00-.84-3.32c3-2.71 7.69-7.24 12.87-12.49 8.62-8.72 7.5-7.79 14.94-16.49z"/></g></g></svg>