<svg id="Layer_1" data-name="Layer 1" xmlns="http://www.w3.org/2000/svg" xmlns:xlink="http://www.w3.org/1999/xlink" viewBox="0 0 999 797.2"><defs><style>.cls-1{fill:#fff5bf;}.cls-1,.cls-12,.cls-2,.cls-4{opacity:0.1;}.cls-1,.cls-11,.cls-14,.cls-2,.cls-4{isolation:isolate;}.cls-13,.cls-2{fill:#2271ff;}.cls-3{fill:#5f5d7e;}.cls-5{fill:#474157;}.cls-6{fill:#ededf4;}.cls-7{fill:#e6e8ec;}.cls-8{fill:#383232;}.cls-9{fill:url(#linear-gradient);}.cls-10{fill:#fdc2cc;}.cls-11{opacity:0.3;}.cls-14,.cls-15{fill:#009f16;}.cls-14{opacity:0.73;}.cls-16{fill:#ffd037;}.cls-17{fill:#65617d;}.cls-18{fill:#9d9cb5;}</style><linearGradient id="linear-gradient" x1="779.05" y1="1405.47" x2="779.05" y2="889.25" gradientTransform="translate(-100.5 -611.37)" gradientUnits="userSpaceOnUse"><stop offset="0" stop-color="gray" stop-opacity="0.25"/><stop offset="0.54" stop-color="gray" stop-opacity="0.12"/><stop offset="1" stop-color="gray" stop-opacity="0.1"/></linearGradient></defs><title>register1</title><path class="cls-1" d="M321.2,31.3C352,3.8,400.3-1.7,444.3.4,582.5,7.3,707.2,74,815,149.4c39,27.3,77.5,56.7,102.8,94.3,51.6,76.6,36.3,182.6-35.5,245.7-24.4,21.5-54,37.9-84.4,52.5-54,25.9-112.3,46.7-173.6,52.7-43.7,4.2-88,.8-131.5-5.1C371.3,573,252.2,536.6,152.2,474.3,108.6,447,67.3,413,49.2,368.8S42.7,268.6,87.5,242.4c18.5-10.8,40.6-15.7,62.3-20.3,31.9-6.8,64.3-13.4,93.1-27.1,29.7-14.2,64.9-41.6,59-73C295.5,88.3,290.5,58.6,321.2,31.3Z" transform="translate(0 0)"/><circle class="cls-1" cx="174.1" cy="129.4" r="31.5"/><circle class="cls-1" cx="108.1" cy="54.4" r="19.5"/><circle class="cls-1" cx="925.6" cy="114.4" r="12"/><ellipse class="cls-2" cx="689.9" cy="788.8" rx="84.2" ry="8.4"/><polygon class="cls-3" points="214 487.3 213.6 507.3 210.7 669 185.3 728.3 98 729.3 98 496.5 189.1 489.3 214 487.3"/><polygon class="cls-4" points="214 487.3 213.6 507.3 210.7 669 185.3 728.3 98 729.3 98 496.5 189.1 489.3 214 487.3"/><polygon class="cls-3" points="214 487.3 213.6 507.3 210.7 669 185.3 728.3 192 507.6 192 507.5 189.1 489.3 214 487.3"/><polygon class="cls-4" points="189.1 489.3 214 487.3 213.6 507.3 192 507.5 98 508.5 98 496.5 189.1 489.3"/><polygon class="cls-3" points="999 496.5 999 728 978.7 728 897.3 668.6 897.3 490 970 483.1 974.5 485.2 978.7 487.1 999 496.5"/><rect class="cls-4" x="978.7" y="485.2" width="20.3" height="242.8"/><polygon class="cls-4" points="999 485.2 999 498.5 978.7 498.7 897.3 499.6 897.3 490 970 483.1 974.5 485.2 978.7 487.1 978.7 485.2 999 485.2"/><polygon class="cls-3" points="999 477.6 999 496.5 0 507.6 0 483.6 94 464.6 912 458.6 999 477.6"/><polygon class="cls-4" points="999 477.6 999 496.5 0 507.6 0 483.6 999 477.6"/><path class="cls-5" d="M388.3,195H692.6a22.79,22.79,0,0,1,22.8,22.78v226a22.79,22.79,0,0,1-22.78,22.8H388.3a22.79,22.79,0,0,1-22.8-22.78v-226A22.79,22.79,0,0,1,388.28,195Z" transform="translate(0 0)"/><rect class="cls-6" x="393.7" y="219.5" width="294.1" height="221.6"/><circle class="cls-7" cx="382.2" cy="330.3" r="4.8"/><circle class="cls-7" cx="700.8" cy="330.8" r="8"/><path class="cls-8" d="M572.4,331.1l-37.6-22.9a5.12,5.12,0,0,0-7,1.95l0,.05a5.42,5.42,0,0,0-.6,2.5v44.5a5.14,5.14,0,0,0,5.18,5.1h0a5.42,5.42,0,0,0,2.5-.6l37.6-21.6a5.12,5.12,0,0,0,2-7l0,0A6.8,6.8,0,0,0,572.4,331.1Zm28.3,3.9a53,53,0,1,0-53,53h0A53,53,0,0,0,600.7,335ZM505,335a42.7,42.7,0,1,1,42.7,42.7h0A42.68,42.68,0,0,1,505,335Z" transform="translate(0 0)"/><path class="cls-9" d="M803.9,509.1a13.84,13.84,0,0,0-1.1-3.5c.8-2.6,1.3-4.2,1.3-4.2a6.64,6.64,0,0,0-.1-1,15.33,15.33,0,0,0-15.5-12.9c-6,.1-17.4.5-30,1.9.7-5,1.6-11.1,2.5-17.3l1.7.2a4.83,4.83,0,0,1,1.2.1h.5a5.51,5.51,0,0,0,3.7-1.1,2.12,2.12,0,0,0,.1-3l-.1-.1a1.84,1.84,0,0,0-.7-.5,8.74,8.74,0,0,0,7.8-3.3,7.07,7.07,0,0,0,0-8.1c-2.1-3-6.6-5-6.8-8.5-.1-2,1.2-3.8,2.3-5.6a23.32,23.32,0,0,0-3.7-28c-1.4-1.4-2.9-2.7-4.4-4-2.2-8.1-4.5-15.3-5.2-15.5-.9-.3-2.4-2.2-3.8-3.8a18.74,18.74,0,0,0-.1-4.1c-1.1-7-8-12-11.8-18.2s-4.5-13.8-3.5-20.8,3.5-13.9,5.5-20.8c1.5-5.1,2.8-10.6,1.1-15.7-1.2-3.6-3.8-6.8-6.5-9.7-6.4-7.1-13.8-13.7-22.9-18a44.36,44.36,0,0,0-20.3-4.3H695l-1.1.1h-.8l-.8.1-.8.1h0a21,21,0,0,0-2.5.4,82.85,82.85,0,0,0-18.5-2.1h-.8a8.9,8.9,0,0,0-5.3,1.3c-2.2,1.5-2.5,4.3-3.2,6.8a18.58,18.58,0,0,1-7.2,10c-2.4,1.7-5.2,3-7.5,4.8s-4.1,4.5-3.5,7.2c.5,2.2,2.6,3.9,5,4.9-.3.4-.6.7-.9,1.1a11.66,11.66,0,0,0,1.4.5c3,.9,6.2,1,9.3,1.8a24.23,24.23,0,0,1,2.5.8,35.4,35.4,0,0,0,14.5,47.7v1c.3,10.4-.5,23.1-5.8,25.3s-10.5,4.6-13.6,6.1l-1,.5c-.8-.4-1.7-.8-2.5-1.2,0,0-4.3-.5-3.5,2.7,0,0-12.8-2-19.9,3.5a191.72,191.72,0,0,0-20.9,19.9c-2.3,2.9-19.8,9.5-19.8,9.5s5.5-7.7,3.1-17.2c0,0-2.6-11.4-1.4-16s4.5-21.6,4.5-21.6.5-17.9-9.3-26.2-16.6-15-12.8-7c1.7,3.7,3.5,7.2,5.5,10.7,0,0-23.4,5.6-15.1,14.2s10.6,8.7,10.6,8.7-2.8,21.4-3.3,25.4-5,34.4-5,34.4-.3,14.5,2.3,16.7a11.44,11.44,0,0,0,12.1,9s19.9-.5,25.4-2.7,24.7-14.2,26.7-13.5c.1.1.3.1.4.3l.3.3c-2,4.4-6.7,19.5-4.7,26.9,0,0-1.8,20.9,8.8,27.7,0,0,15.3,25.9,9.6,39.9-.5,1.1-.9,2.2-1.3,3.2-8.8-7.3-22.2-14-42.7-17.7-2.1-.4-4.2-.8-6.2-1.3-5.8-1.4-21.8-2.7-29.5,22.6A105,105,0,0,1,559,566c-3,6.1-6.3,14.8-6.4,23.4-.2,12.1,6.1,24.1,28.8,28.5.3,9,1.3,19.7,4.4,27.4,6.3,15.7,16.4,41.1,16.4,41.1s12.1,25.9,12.8,36.4c.5,6.8,1.2,15.8.7,22,0,.4-.1.7-.1,1.1a34.43,34.43,0,0,1-3.4,3.1c-1.8,1-7.5,7.2-7.5,8.7a20.74,20.74,0,0,0,.4,4.3c-2.7,2.4-4.2,5-4.2,7.6,0,13.5,38.4,24.5,85.7,24.5s85.7-11,85.7-24.5c0-12.3-32-22.5-73.6-24.2,8.7-3.5,16.4-7.1,19.6-10a4.12,4.12,0,0,0,1.5-2.1l-8-18.7a15,15,0,0,0-1.6.4l-.6-.8c-3.6-5.5-10.5-16.3-10.5-19.3,0-1.1-1.8-8.1-4.5-17.6V646.7c26.3,4,60.1-1.4,60.1-1.4l.2-.1h.7v-.4c4.5-2.5,27.3-15.8,34.1-33.5,2-5.2-.5-12.5-5.4-20.5,3.5-8.6,12-30.8,11.2-39.6,0-.5-.1-1-.1-1.5a24.37,24.37,0,0,0,.1-2.7c1-13,9-36.8,9-36.8A2.38,2.38,0,0,1,803.9,509.1Zm-170-57.7c1.8,3.2,3.8,7.3,4.5,9h0C638.4,460.3,635.8,455.4,633.9,451.4Zm1.9,280.1-.2.1v-1a67.67,67.67,0,0,1,.2-7.8,9.83,9.83,0,0,0-.9-4.1,96,96,0,0,1-6.1-24.1c-1-8.7-1.8-18.2-1.3-20.7.8-3.7,1.4-31.8.5-45.7l15.5,3.5,18,36.7s11.6,17.9,15.2,32.1v14.2a33.83,33.83,0,0,1-5.4,11.7c-2.4,3.3-4.7,6.6-6.9,10-.7,1.1-1.4,2.2-2.1,3.2-.2,0-12.1.7-14.1,2.9-1.2,1.4-3.4,3.5-3.8,5.7l-.5.1c-2.4-7-8.1-16.8-8.1-16.8Z" transform="translate(0 0)"/><path class="cls-4" d="M711.9,718.6l-4,13-17,14.8-25,7.2s-11.8-6.4-7.8-7.7c1.1-.3,2.4-1.6,3.8-3.3-1.4,5.1,9.7-1.5,9.7-1.5s28.8-20.5,31.8-22.8a21.53,21.53,0,0,1,6.4-2.9C711.1,717.4,711.9,718.6,711.9,718.6Z" transform="translate(0 0)"/><path class="cls-10" d="M711.9,718.6l-4,13-17,14.8-25,7.2s-11.8-6.4-7.8-7.7c1.1-.3,2.4-1.6,3.8-3.3a40.42,40.42,0,0,0,3.3-4.8c2.1-3.4,4.5-6.8,6.8-10a35.51,35.51,0,0,0,6.3-16.6c1.8-13.8-16-41.5-16-41.5L630,603.4l45,5.5s24.3,83.3,24.3,87.3c0,3,6.8,13.8,10.4,19.3C711.1,717.4,711.9,718.6,711.9,718.6Z" transform="translate(0 0)"/><ellipse class="cls-3" cx="687" cy="771" rx="85.1" ry="24.5"/><path class="cls-8" d="M719.9,734.6a5.08,5.08,0,0,1-1.5,2.1c-6.2,5.7-29.3,14.1-43.6,18.7a113.26,113.26,0,0,1-11.4,3.3c-3.5.3-10.8-2-15.8-5.1s-.5-7.4,1.5-9.7,14-2.9,14-2.9c-5.8,9.6,8.5,1.2,8.5,1.2s28.8-20.5,31.8-22.8,8.5-3.5,8.5-3.5Z" transform="translate(0 0)"/><path class="cls-11" d="M719.9,734.6a5.08,5.08,0,0,1-1.5,2.1c-6.2,5.7-29.3,14.1-43.6,18.7a113.26,113.26,0,0,1-11.4,3.3c-3.5.3-10.8-2-15.8-5.1s-.5-7.4,1.5-9.7,14-2.9,14-2.9c-5.8,9.6,8.5,1.2,8.5,1.2s28.8-20.5,31.8-22.8,8.5-3.5,8.5-3.5Z" transform="translate(0 0)"/><path class="cls-4" d="M718.4,736.7c-6.2,5.7-29.3,14.1-43.6,18.7C687.8,744.4,709.5,738.7,718.4,736.7Z" transform="translate(0 0)"/><ellipse class="cls-4" cx="687" cy="763.1" rx="17" ry="4.9"/><rect class="cls-3" x="677.5" y="633.6" width="17.5" height="129.5"/><path class="cls-4" d="M695,640.1v15c-3.5-1.1-11.5-5.6-17.5-9.2V633.7h3.7Z" transform="translate(0 0)"/><path class="cls-5" d="M653.8,577.3s57.8-14.9,72.2-26,70.8,41.2,63.4,61-34.6,34.1-34.6,34.1-75.1,12.2-87.9-13.3S653.8,577.3,653.8,577.3Z" transform="translate(0 0)"/><path class="cls-4" d="M653.8,577.3s57.8-14.9,72.2-26,70.8,41.2,63.4,61-34.6,34.1-34.6,34.1-75.1,12.2-87.9-13.3S653.8,577.3,653.8,577.3Z" transform="translate(0 0)"/><path class="cls-5" d="M648.8,571.3s57.8-14.9,72.2-26,70.8,41.2,63.4,61-34.6,34.1-34.6,34.1-75.1,12.2-87.9-13.3S648.8,571.3,648.8,571.3Z" transform="translate(0 0)"/><path class="cls-10" d="M595.2,434.9l-6.3-2.3s5.5-7.8,3.1-17.3c0,0-2.6-11.5-1.4-16.1s4.5-21.6,4.5-21.6.5-18-9.3-26.3-16.5-15-12.7-7a109.57,109.57,0,0,0,5.5,10.8s-23.3,5.6-15,14.3,10.5,8.7,10.5,8.7-2.8,21.5-3.3,25.5-5,34.5-5,34.5-.3,14.5,2.3,16.8a11.25,11.25,0,0,0,12,9C582,463.8,603.2,440.4,595.2,434.9Z" transform="translate(0 0)"/><path class="cls-10" d="M746.2,388.9v14l-14.5,4.7L707,425.8l-6.5,4.8-29.3-11.8-18.5-19.5s.9-.5,2.5-1.3l1-.5c3.1-1.6,8.1-4,13.5-6.2s6.1-14.9,5.8-25.4v-1c-.3-7.4-1-13.4-1-13.4s3-.6,7.5-1.2c12.3-1.8,35.3-4.3,33.3,3.2a17.12,17.12,0,0,0,0,7.8c.1.3.1.6.2.9,2.1,9.1,8.5,18.6,8.5,18.6l20,7.2.6.2Z" transform="translate(0 0)"/><path class="cls-10" d="M746.2,393.1v-4.3a12.91,12.91,0,0,1,4.8,0c1.8.5,5.1,5.8,6.6,6.3s10.7,34.8,9.7,37.8-10.5,70.7-10.5,70.7l-19,21L734,466.8l12.3-34.3Z" transform="translate(0 0)"/><path class="cls-10" d="M647.4,550.4s-17.4,3.8-15.2,9.3,12,5.8,12,5.8Z" transform="translate(0 0)"/><path class="cls-10" d="M671.7,439.4,658.4,468l-15.8,11.5-2.8-17.8s-5.3-11.8-7.6-13.7a1.31,1.31,0,0,0-.4-.3c-2-.8-21,11.3-26.5,13.5S580,464,580,464l8.8-31.3s17.5-6.5,19.8-9.5,13.8-14.5,20.8-20,19.8-3.5,19.8-3.5l.2.1,3.3,1.4,9.5,23.3Z" transform="translate(0 0)"/><path class="cls-10" d="M636.9,724.2a67.67,67.67,0,0,0-.2,7.8c.1,2.8.2,5.2.2,5.2l-5.8,12s-19.8,6.5-16.5,3.8c1.1-1,1.7-3.4,2-6.7.5-6.2-.2-15.2-.7-22.1-.8-10.5-12.8-36.5-12.8-36.5s-10-25.5-16.3-41.3-4-44.3-4-44.3,1-21.5,5.5-28,22-8.8,22-8.8l8.2,27.2s6.8,25.5,9.3,29.3,1.8,48.5.8,53.3c-.5,2.4.3,12,1.3,20.7A96.69,96.69,0,0,0,636,720,7.57,7.57,0,0,1,636.9,724.2Z" transform="translate(0 0)"/><path class="cls-4" d="M636.9,737.2l-5.8,12s-19.8,6.5-16.5,3.8c1.1-1,1.7-3.4,2-6.7l2.3-2.3a49.78,49.78,0,0,1,17.8-11.9h0C636.8,734.8,636.9,737.2,636.9,737.2Z" transform="translate(0 0)"/><path class="cls-8" d="M646,755h0c-1,4.9-17.5,11.4-17.5,11.4s-10.5,1.8-16.5,3.3a3.31,3.31,0,0,1-1.4.1c-4.6-.3-4.8-9.3-4.8-10.6s5.8-7.8,7.5-8.8a56.14,56.14,0,0,0,5.6-5.3,51.29,51.29,0,0,1,18.2-12.2h0C637,732.9,646.8,750.1,646,755Z" transform="translate(0 0)"/><path class="cls-11" d="M646,755h0c-1,4.9-17.5,11.4-17.5,11.4s-10.5,1.8-16.5,3.3a3.31,3.31,0,0,1-1.4.1c-4.6-.3-4.8-9.3-4.8-10.6s5.8-7.8,7.5-8.8a57.13,57.13,0,0,0,5.6-5.4,50.91,50.91,0,0,1,17.9-12l.3-.1S646.8,750.1,646,755Z" transform="translate(0 0)"/><path class="cls-4" d="M646,755h0c-1,4.9-17.5,11.4-17.5,11.4s-10.5,1.8-16.5,3.3a3.31,3.31,0,0,1-1.4.1c5.4-3.7,18.6-12.7,20.4-12.9S641.5,754.2,646,755Z" transform="translate(0 0)"/><path class="cls-4" d="M715.4,362.3c-6.2,5.1-11.9,4.4-20.5,4.4-6.2,0-14.3,2.2-19.5-.6-.2-7.8-1-14.4-1-14.4s43.5-8.3,40.8,2A17.88,17.88,0,0,0,715.4,362.3Z" transform="translate(0 0)"/><path class="cls-10" d="M728.4,333.7a35.84,35.84,0,0,1-35.8,35.8h0a24.37,24.37,0,0,1-2.7-.1h0a35.76,35.76,0,1,1,38.5-35.7Z" transform="translate(0 0)"/><path class="cls-4" d="M662.2,424.4l9.5,15L658.4,468l-15.8,11.5-2.8-17.8s-5.3-11.8-7.6-13.7c.7-1.6,1.1-2.4,1.1-1.8,0,2.5,6.2,13.8,6.2,13.8,19-6.5,13.1-31.8,13.1-31.8s-2.4-22.5-3.3-28.4l3.3,1.4Z" transform="translate(0 0)"/><path class="cls-4" d="M746.2,388.9v14l-14.5,4.7L707,425.8l-6.5,4.8-29.3-11.8-18.5-19.5s.9-.5,2.5-1.3l1-.5c12.9,5.9,26.8,8,36.8,8.8a106,106,0,0,0,13.8.3c37.7-6,38.8-15.1,37.8-18.3Z" transform="translate(0 0)"/><path class="cls-8" d="M756.9,615.6a295.52,295.52,0,0,1-29,12.3c-17.3,6.3-55.3-2-60-3.3s-41.3-15.8-55.3-21.3-17.5-1-20.8-1.5-5.5-6.8-6-8.5,9-17,14.3-24.8,21-6.3,23.3-6.8,18,0,18,0-1-5,4.8-19-9.5-40-9.5-40c-10.5-6.8-8.8-27.8-8.8-27.8-2.5-9.3,5.5-30.5,5.5-28s6.2,13.8,6.2,13.8c19-6.5,13.1-31.8,13.1-31.8s-2.8-26.3-3.5-29.5,3.5-2.8,3.5-2.8c.8.4,1.6.8,2.5,1.2,13.2,6.2,27.6,8.5,37.8,9.2a106,106,0,0,0,13.8.3c45.7-7.4,37.6-19.1,37.3-19.5l2.2.8c16.5,12,11.5,51.8,11.5,51.8l-6.2,29.7L747,492.2s16.3,98.5,17.8,103.5S756.9,615.6,756.9,615.6Z" transform="translate(0 0)"/><path class="cls-4" d="M635.2,570.6c-1,.8-12.3,24-4,30.5S635.2,570.6,635.2,570.6Z" transform="translate(0 0)"/><path class="cls-4" d="M643.2,573.9c.3.8,23.5,37.8,36.3,40.8Z" transform="translate(0 0)"/><path class="cls-4" d="M699.2,281.1l-3.7.8a18.36,18.36,0,0,1,3.1-.9Z" transform="translate(0 0)"/><path class="cls-4" d="M755.2,440.6l-7,29.7a33.83,33.83,0,0,1-9.7-6.5c-2.2-2.1-4.2-4.5-7.1-5.9-3.7-1.8-8.1-1.5-12.3-1.7a61.91,61.91,0,0,1-15.4-2.6,11.52,11.52,0,0,1-4-1.9c-2.4-2.1-2.2-5.5-2-8.5a142.66,142.66,0,0,0,.2-17.3c-.1-1.1-.1-2.2-.2-3.2-.4-4.8-1.7-10.4-6.6-12.5-2.5-1-5.6-.9-8-2.1a9.12,9.12,0,0,1-1-.6c-3.6-2.5-3.9-7.6-3.8-11.8.2-5.8.4-11.7.6-17.5a49.42,49.42,0,0,0-.2-8.6h0a17.58,17.58,0,0,0-1.6-5.5c-2.2-4.6-6.7-8.5-7.5-13.4,0-.2-.1-.5-.1-.7-.4-4.4,2.3-8.5,3.3-12.8,1.9-8.7-4.6-18.2-14.2-20.7-3-.8-6.2-.9-9.2-1.8a7.78,7.78,0,0,1-1.4-.5c7.2-9.7,19.7-16,33.7-16,22.3,0,40.4,16,40.4,35.8,0,11.2-5.8,21.2-14.9,27.8.1.3.1.6.2.9,2.3,9.1,9.6,18.6,9.6,18.6l22.6,7.2,2.5.8C760.9,400.9,755.2,440.6,755.2,440.6Z" transform="translate(0 0)"/><path class="cls-4" d="M767.5,469.3a1.23,1.23,0,0,1-.6-.1C767.1,469.2,767.3,469.3,767.5,469.3Z" transform="translate(0 0)"/><path class="cls-5" d="M690.2,280.1a81.91,81.91,0,0,0-19.1-2.2c-2.1,0-4.3.1-6,1.3-2.2,1.5-2.5,4.4-3.2,6.8a18.58,18.58,0,0,1-7.2,10c-2.4,1.7-5.2,3-7.4,4.8s-4,4.5-3.4,7.2,3.6,4.7,6.6,5.6,6.2,1,9.2,1.8c9.6,2.5,16.1,12,14.2,20.6-1,4.3-3.7,8.4-3.3,12.8.5,5.2,5.3,9.3,7.6,14.1,2.1,4.4,1.9,9.4,1.8,14.2l-.6,17.5c-.2,4.6.2,10.2,4.8,12.4,2.4,1.2,5.5,1.1,8,2.1,4.9,2.1,6.2,7.7,6.6,12.5a127.56,127.56,0,0,1,.1,20.5c-.2,3-.4,6.4,2,8.5a9.8,9.8,0,0,0,4,1.9,57.91,57.91,0,0,0,15.4,2.6c4.2.2,8.6-.1,12.3,1.7,2.9,1.4,4.9,3.8,7.1,5.9a39.33,39.33,0,0,0,23.2,10.2c1.8.2,4,.1,5.2-1.1s.5-3.8-1.3-3.6a8.94,8.94,0,0,0,8.4-3.2,7.23,7.23,0,0,0,0-8.2c-2.1-3-6.5-5-6.8-8.6-.1-2,1.2-3.8,2.2-5.6a23.43,23.43,0,0,0-3.6-28c-4.7-4.9-11.7-8.5-13.4-14.8-1.1-4.2.6-8.5-.1-12.8-1-7-7.9-12-11.7-18.2s-4.5-13.8-3.5-20.9,3.4-14,5.4-20.9c1.5-5.1,2.7-10.6,1.1-15.7-1.2-3.6-3.8-6.8-6.4-9.8-6.4-7.1-13.7-13.8-22.8-18s-20.1-5.9-29.7-2.7" transform="translate(0 0)"/><path class="cls-4" d="M690.2,280.1a81.91,81.91,0,0,0-19.1-2.2c-2.1,0-4.3.1-6,1.3-2.2,1.5-2.5,4.4-3.2,6.8a18.58,18.58,0,0,1-7.2,10c-2.4,1.7-5.2,3-7.4,4.8s-4,4.5-3.4,7.2,3.6,4.7,6.6,5.6,6.2,1,9.2,1.8c9.6,2.5,16.1,12,14.2,20.6-1,4.3-3.7,8.4-3.3,12.8.5,5.2,5.3,9.3,7.6,14.1,2.1,4.4,1.9,9.4,1.8,14.2l-.6,17.5c-.2,4.6.2,10.2,4.8,12.4,2.4,1.2,5.5,1.1,8,2.1,4.9,2.1,6.2,7.7,6.6,12.5a127.56,127.56,0,0,1,.1,20.5c-.2,3-.4,6.4,2,8.5a9.8,9.8,0,0,0,4,1.9,57.91,57.91,0,0,0,15.4,2.6c4.2.2,8.6-.1,12.3,1.7,2.9,1.4,4.9,3.8,7.1,5.9a39.33,39.33,0,0,0,23.2,10.2c1.8.2,4,.1,5.2-1.1s.5-3.8-1.3-3.6a8.94,8.94,0,0,0,8.4-3.2,7.23,7.23,0,0,0,0-8.2c-2.1-3-6.5-5-6.8-8.6-.1-2,1.2-3.8,2.2-5.6a23.43,23.43,0,0,0-3.6-28c-4.7-4.9-11.7-8.5-13.4-14.8-1.1-4.2.6-8.5-.1-12.8-1-7-7.9-12-11.7-18.2s-4.5-13.8-3.5-20.9,3.4-14,5.4-20.9c1.5-5.1,2.7-10.6,1.1-15.7-1.2-3.6-3.8-6.8-6.4-9.8-6.4-7.1-13.7-13.8-22.8-18s-20.1-5.9-29.7-2.7" transform="translate(0 0)"/><path class="cls-4" d="M636.7,502.9s8.5,3.3,17.5-5.8S636.7,502.9,636.7,502.9Z" transform="translate(0 0)"/><g class="cls-12"><path d="M693.9,280a41.86,41.86,0,0,1,5-.6,40.93,40.93,0,0,0-7,.2Z" transform="translate(0 0)"/><path d="M744.1,462.8c-2.2-2.1-4.2-4.5-7.1-5.9-3.7-1.8-8.1-1.5-12.3-1.7a61.91,61.91,0,0,1-15.4-2.6,11.52,11.52,0,0,1-4-1.9c-2.4-2.1-2.2-5.5-2-8.5a127.56,127.56,0,0,0-.1-20.5c-.4-4.8-1.7-10.4-6.7-12.5-2.5-1.1-5.6-.9-8-2.1-4.6-2.3-5-7.8-4.8-12.4.2-5.8.4-11.7.6-17.5.2-4.8.3-9.8-1.8-14.2-2.3-4.9-7.1-8.9-7.6-14.1-.4-4.4,2.3-8.5,3.3-12.8,1.9-8.7-4.6-18.2-14.2-20.6-3-.8-6.2-.9-9.2-1.8s-5.9-2.8-6.5-5.5,1.2-5.4,3.4-7.2,5.1-3.1,7.4-4.8a18.36,18.36,0,0,0,7.1-10c.7-2.4,1-5.2,3.2-6.8a7.28,7.28,0,0,1,4.1-1.2h-2.7c-2.1,0-4.3.1-6,1.3-2.2,1.6-2.5,4.4-3.2,6.8a18.58,18.58,0,0,1-7.2,10c-2.4,1.7-5.2,3-7.4,4.8s-4,4.5-3.4,7.2,3.5,4.6,6.5,5.5,6.2,1,9.2,1.8c9.6,2.5,16.1,12,14.2,20.6-1,4.3-3.7,8.4-3.3,12.8.5,5.2,5.3,9.3,7.6,14.1,2.1,4.4,1.9,9.4,1.8,14.2-.2,5.8-.4,11.7-.6,17.5-.2,4.6.2,10.2,4.8,12.4,2.4,1.2,5.5,1.1,8,2.1,4.9,2.1,6.2,7.7,6.6,12.5a127.56,127.56,0,0,1,.1,20.5c-.2,3-.4,6.4,2,8.5a9.8,9.8,0,0,0,4,1.9,57.91,57.91,0,0,0,15.4,2.6c4.2.2,8.6-.1,12.3,1.7,2.9,1.4,4.9,3.8,7.1,5.9a39.33,39.33,0,0,0,23.2,10.2,12.16,12.16,0,0,0,3.3-.1A40.18,40.18,0,0,1,744.1,462.8Z" transform="translate(0 0)"/></g><path class="cls-4" d="M588.9,432.6s-8,7.3-6.8,10.3S588.9,432.6,588.9,432.6Z" transform="translate(0 0)"/><path class="cls-5" d="M596.3,527c-5.8-1.4-21.7-2.7-29.3,22.7a120.11,120.11,0,0,1-6.7,17.2c-7.3,14.9-16.6,45.6,24.6,52.3l99,22.5s53,6.5,56.5,4,3-8,3-8-58.5,0-70-18-12-42.5-12-42.5,1.4-37.8-59-48.8C600.5,528,598.4,527.5,596.3,527Z" transform="translate(0 0)"/><path class="cls-4" d="M596.3,527.2c-5.8-1.4-21.7-2.7-29.3,22.7a120.11,120.11,0,0,1-6.7,17.2c-7.3,14.9-16.6,45.6,24.6,52.3l99,22.5s53,6.5,56.5,4,3-8,3-8-58.5,0-70-18-12-42.5-12-42.5,1.4-37.8-59-48.8C600.5,528.1,598.4,527.6,596.3,527.2Z" transform="translate(0 0)"/><path class="cls-5" d="M803.9,501.1a15.25,15.25,0,0,0-15.5-12.9c-14.2.3-58.1,2.2-78.4,15.5,0,0-15.5,10-20,10s-65.5,52,25,98.5c0,0,48.5,13.8,67.5-18.6,0,0,13.5-34.8,12.5-46.8s9-44.5,9-44.5A9.71,9.71,0,0,0,803.9,501.1Z" transform="translate(0 0)"/><path class="cls-4" d="M803.9,509.9c-1.1-7-7.8-12.1-15.5-11.9-14.2.2-58.1,2-78.4,14.3,0,0-15.5,9.2-20,9.2s-65.5,48,25,90.9c0,0,48.5,12.7,67.5-17.2,0,0,13.5-32.1,12.5-43.3s9-41.1,9-41.1A5.51,5.51,0,0,0,803.9,509.9Z" transform="translate(0 0)"/><rect class="cls-3" x="739.5" y="612.1" width="16" height="34.1"/><ellipse class="cls-4" cx="170.2" cy="470.7" rx="45" ry="2.9"/><path class="cls-13" d="M208,359.3a18,18,0,0,0-2.3,4.3c-.1.4-.3.8-.4,1.2-.3-.1-.5-.2-.8-.3a10.92,10.92,0,0,0-3.6-.3c0-.5.1-1,.1-1.5.1-5.3-.5-12.6-5.5-9.5-4.8,3-1.4,8,1.7,11.2l.8.8c-2.8,2-3.4,6.7-3.9,11.6s-4.6,10.3-7.4,13.3c-.3.3-.5.6-.8.9a10.12,10.12,0,0,0-8-2.1,9.72,9.72,0,0,0-.4-1.4c-2.2-8.1-6.9-22.1-12.8-25.2l.8-1c2.5-3.3,5.4-8.2,1.2-9.5s-4.6,4.3-4.3,8.4c0,.5.1,1,.1,1.5a6.56,6.56,0,0,0-4.4,2.1l-.6-.8c-3.4-4-9.6-10.4-11.5-5.6-1.8,4.5,3.7,10.3,7.6,13.7l.2.2c-2.6,10.5,8.7,19.1,14.8,22.9l.8.5c-8.4,9.9-13.6,28.5-13.6,28.5l23.5,4.2s15.6-13.5,13.6-26.1h.2c15.6-3.1,19.1-19.7,16.7-29.6l.3-.1a17.57,17.57,0,0,0,7.2-5.5C221.7,360.1,212.5,353.3,208,359.3Z" transform="translate(0 0)"/><path class="cls-14" d="M208,359.3a18,18,0,0,0-2.3,4.3c-.1.4-.3.8-.4,1.2-.3-.1-.5-.2-.8-.3a10.92,10.92,0,0,0-3.6-.3c0-.5.1-1,.1-1.5.1-5.3-.5-12.6-5.5-9.5-4.8,3-1.4,8,1.7,11.2l.8.8c-2.8,2-3.4,6.7-3.9,11.6s-4.6,10.3-7.4,13.3c-.3.3-.5.6-.8.9a10.12,10.12,0,0,0-8-2.1,9.72,9.72,0,0,0-.4-1.4c-2.2-8.1-6.9-22.1-12.8-25.2l.8-1c2.5-3.3,5.4-8.2,1.2-9.5s-4.6,4.3-4.3,8.4c0,.5.1,1,.1,1.5a6.56,6.56,0,0,0-4.4,2.1l-.6-.8c-3.4-4-9.6-10.4-11.5-5.6-1.8,4.5,3.7,10.3,7.6,13.7l.2.2c-2.6,10.5,8.7,19.1,14.8,22.9l.8.5c-8.4,9.9-13.6,28.5-13.6,28.5l23.5,4.2s15.6-13.5,13.6-26.1h.2c15.6-3.1,19.1-19.7,16.7-29.6l.3-.1a17.57,17.57,0,0,0,7.2-5.5C221.7,360.1,212.5,353.3,208,359.3Z" transform="translate(0 0)"/><path class="cls-15" d="M161.2,366l-2.7,8.1s-1.5-1.1-3.5-2.8c-3.9-3.4-9.4-9.2-7.6-13.7,1.9-4.8,8.1,1.5,11.5,5.6C160.3,364.8,161.2,366,161.2,366Z" transform="translate(0 0)"/><path class="cls-15" d="M167,361.4a26.54,26.54,0,0,1-2.7,3.1c-.2-1.4-.4-2.8-.5-4.2-.2-4.1.2-9.6,4.3-8.4S169.5,358.1,167,361.4Z" transform="translate(0 0)"/><path class="cls-15" d="M202.5,362.7c-.1,2.6-.3,4.8-.3,4.8a25,25,0,0,1-3.4-3.1c-3.1-3.2-6.5-8.2-1.7-11.2S202.6,357.4,202.5,362.7Z" transform="translate(0 0)"/><path class="cls-15" d="M218.7,366.2a18.55,18.55,0,0,1-7.2,5.5l-2.4.9-3.2-4.5a31.76,31.76,0,0,1,1.3-4.4,18,18,0,0,1,2.3-4.3C214,353.3,223.1,360.1,218.7,366.2Z" transform="translate(0 0)"/><path class="cls-4" d="M158.9,363.2c1.4,1.6,2.3,2.8,2.3,2.8l-2.7,8.1s-1.5-1.1-3.5-2.8a15.65,15.65,0,0,1,3.1-7.1A7,7,0,0,0,158.9,363.2Z" transform="translate(0 0)"/><path class="cls-4" d="M167,361.4a26.54,26.54,0,0,1-2.7,3.1c-.2-1.4-.4-2.8-.5-4.2A6.81,6.81,0,0,1,167,361.4Z" transform="translate(0 0)"/><path class="cls-15" d="M180.5,393.4l-6.8,3a30.74,30.74,0,0,1-3.6-2.1c-7.2-4.4-21.6-15.6-12-28.7s17.8,10.4,21,21.9C180,391,180.5,393.4,180.5,393.4Z" transform="translate(0 0)"/><path class="cls-4" d="M198.7,364.4a5.8,5.8,0,0,1,3.8-1.7c-.1,2.6-.3,4.8-.3,4.8A35.42,35.42,0,0,1,198.7,364.4Z" transform="translate(0 0)"/><path class="cls-4" d="M211.5,371.6l-2.4.9-3.2-4.5a31.76,31.76,0,0,1,1.3-4.4C209.3,364.8,210.8,367.8,211.5,371.6Z" transform="translate(0 0)"/><path class="cls-15" d="M194.5,401.4l-1.1.2c-22.9,3.5-7.6-8.9-7.6-8.9s1-1,2.4-2.5c2.8-3,6.9-8.4,7.4-13.3.7-7.4,1.5-14.4,10.3-12.4S216.3,397,194.5,401.4Z" transform="translate(0 0)"/><rect class="cls-5" x="150.3" y="458.4" width="43.8" height="11.5"/><rect class="cls-5" x="143.3" y="421" width="57.2" height="40.2"/><rect class="cls-4" x="149.9" y="458.4" width="43.8" height="11.5"/><rect class="cls-4" x="143.2" y="421" width="57.2" height="40.2"/><rect class="cls-5" x="153.2" y="458.4" width="43.8" height="11.5"/><path class="cls-4" d="M179.1,387.6c1,3.4,1.5,5.8,1.5,5.8l-6.8,3a30.74,30.74,0,0,1-3.6-2.1C172.7,391,175.8,388.4,179.1,387.6Z" transform="translate(0 0)"/><path class="cls-4" d="M194.5,401.4l-1.1.2c-22.9,3.5-7.6-8.9-7.6-8.9s1-1,2.4-2.5C192.5,393.6,194.3,397.5,194.5,401.4Z" transform="translate(0 0)"/><path class="cls-15" d="M157.3,423.3s12.8-46,30.9-31.8-7.3,36-7.3,36Z" transform="translate(0 0)"/><circle class="cls-4" cx="163.7" cy="372.9" r="1.4"/><circle class="cls-4" cx="163.6" cy="379.6" r="1.4"/><circle class="cls-4" cx="205.4" cy="374.2" r="1.4"/><circle class="cls-4" cx="171.8" cy="408.6" r="1.4"/><circle class="cls-4" cx="202.4" cy="385.4" r="1.4"/><circle class="cls-4" cx="187.5" cy="400.2" r="1.4"/><circle class="cls-4" cx="168.7" cy="375.8" r="1.4"/><circle class="cls-4" cx="201.4" cy="378.5" r="1.4"/><circle class="cls-4" cx="196.5" cy="389.7" r="1.4"/><circle class="cls-4" cx="181.4" cy="407.6" r="1.4"/><circle class="cls-4" cx="178.3" cy="400.5" r="1.4"/><circle class="cls-4" cx="170.8" cy="384.5" r="1.4"/><rect class="cls-4" x="153.2" y="458.4" width="43.8" height="4.2"/><rect class="cls-5" x="146.2" y="421" width="57.2" height="40.2"/><circle class="cls-4" cx="183.3" cy="414" r="1.4"/><circle class="cls-4" cx="174.7" cy="415.8" r="1.4"/><path class="cls-15" d="M311.9,574.6s7.1,9.3-3.3,23.4-19,26-15.6,34.8c0,0,15.7-26.2,28.5-26.5S326,590.4,311.9,574.6Z" transform="translate(0 0)"/><path class="cls-4" d="M311.9,574.6a15.62,15.62,0,0,1,1.5,2.9c12.5,14.7,19.1,28.4,7.1,28.7-11.2.4-24.6,20.4-27.8,25.4a5.64,5.64,0,0,0,.4,1.2s15.7-26.2,28.5-26.5S326,590.4,311.9,574.6Z" transform="translate(0 0)"/><path class="cls-16" d="M325.1,586.5c0,3.3-.4,5.9-.8,5.9s-.8-2.7-.8-5.9.5-1.7.9-1.7S325.1,583.2,325.1,586.5Z" transform="translate(0 0)"/><path class="cls-16" d="M329.7,590.5c-2.9,1.6-5.4,2.5-5.6,2.1s1.9-2,4.8-3.6,1.7-.4,2,0S332.6,588.9,329.7,590.5Z" transform="translate(0 0)"/><path class="cls-15" d="M274.2,574.6s-7.1,9.3,3.3,23.4,19,26,15.5,34.8c0,0-15.7-26.2-28.5-26.5S260.1,590.4,274.2,574.6Z" transform="translate(0 0)"/><path class="cls-4" d="M274.2,574.6a15.62,15.62,0,0,0-1.5,2.9c-12.5,14.7-19.1,28.4-7.1,28.7,11.2.4,24.6,20.4,27.8,25.4a5.64,5.64,0,0,1-.4,1.2s-15.7-26.2-28.5-26.5S260.1,590.4,274.2,574.6Z" transform="translate(0 0)"/><path class="cls-16" d="M260.9,586.5c0,3.3.4,5.9.8,5.9s.8-2.7.8-5.9-.5-1.7-.9-1.7S260.9,583.2,260.9,586.5Z" transform="translate(0 0)"/><path class="cls-16" d="M256.4,590.5c2.9,1.6,5.4,2.5,5.6,2.1s-1.9-2-4.8-3.6-1.7-.4-2,0S253.5,588.9,256.4,590.5Z" transform="translate(0 0)"/><ellipse class="cls-2" cx="293" cy="692.7" rx="74.6" ry="11.5"/><path class="cls-17" d="M331.4,620.2l-.4,2.9-.5,4.1-.2,1.7-.5,4.1-.2,1.7-.5,4.1-5.7,46.8c-.5,4.2-7.3,7.4-15.6,7.4H278.1c-8.2,0-15-3.3-15.6-7.4l-5.7-46.8-.5-4.1-.2-1.7-.5-4.1-.2-1.7-.5-4.1-.4-2.9c-.3-2.4,3.4-4.4,8.1-4.4h60.7C328,615.9,331.7,617.9,331.4,620.2Z" transform="translate(0 0)"/><polygon class="cls-18" points="331.1 623.2 330.6 627.3 255.5 627.3 255 623.2 331.1 623.2"/><polygon class="cls-18" points="330.4 629 329.9 633.1 256.2 633.1 255.7 629 330.4 629"/><polygon class="cls-18" points="329.7 634.8 329.2 638.9 256.9 638.9 256.4 634.8 329.7 634.8"/></svg>